# xmcd CD database file
#
# Track frame offsets:
#	150
#	11845
#	22062
#	33940
#	47332
#	58055
#	69370
#	78335
#	90385
#	99147
#
# Disc length: 1474 seconds
#
# Revision: 2
# Processed by: cddbd v1.5.2PL0 Copyright (c) Steve Scherf et al.
# Submitted via: CDex 1.51
#
DISCID=6c05c00a
DTITLE=The Jackson 5 - The Jackson 5 featuring Michael Jackson
DYEAR=1995
DGENRE=Soul
TTITLE0=You've Changed
TTITLE1=We Don't Have To Be Over 21 (To Fall In Love)
TTITLE2=Jam Session
TTITLE3=Big Boy
TTITLE4=Michael The Lover
TTITLE5=My Girl
TTITLE6=Soul Jerk
TTITLE7=Under The Boardwalk
TTITLE8=Saturday Night At The Movies
TTITLE9=The Tracks Of My Tears
EXTD=YEAR: 1995
EXTT0=
EXTT1=
EXTT2=
EXTT3=
EXTT4=
EXTT5=
EXTT6=
EXTT7=
EXTT8=
EXTT9=
PLAYORDER=
